<?xml version="1.0" encoding="UTF-8"?>
<!DOCTYPE svg PUBLIC "-//W3C//DTD SVG 1.1//EN" "http://www.w3.org/Graphics/SVG/1.1/DTD/svg11.dtd">
<svg xmlns="http://www.w3.org/2000/svg" version="1.1" width="446px" height="753px" style="shape-rendering:geometricPrecision; text-rendering:geometricPrecision; image-rendering:optimizeQuality; fill-rule:evenodd; clip-rule:evenodd" xmlns:xlink="http://www.w3.org/1999/xlink">
<g><path style="opacity:0.997" fill="#495e56" d="M 228.5,-0.5 C 242.167,-0.5 255.833,-0.5 269.5,-0.5C 279.003,1.78912 288.67,3.95579 298.5,6C 312.837,13.0026 327.837,18.0026 343.5,21C 351.482,23.2159 359.149,26.2159 366.5,30C 369.118,32.7395 371.618,35.5728 374,38.5C 374.974,42.4208 376.141,46.2541 377.5,50C 364.558,63.4836 349.224,73.4836 331.5,80C 305.569,90.3151 278.903,97.1484 251.5,100.5C 237.369,96.9343 224.035,91.4343 211.5,84C 203.395,83.1143 195.728,80.781 188.5,77C 178.221,65.8775 167.554,55.2108 156.5,45C 194.134,42.4966 231.8,40.6633 269.5,39.5C 284.148,40.4329 298.814,40.7662 313.5,40.5C 313.5,39.5 313.5,38.5 313.5,37.5C 300.17,36.3348 286.837,35.1681 273.5,34C 269.131,33.1577 264.797,32.1577 260.5,31C 247.831,30.5616 235.164,30.0616 222.5,29.5C 201.228,29.871 180.228,32.371 159.5,37C 156.6,38.7424 153.6,40.2424 150.5,41.5C 148.308,41.2427 146.641,40.2427 145.5,38.5C 152.429,35.7487 158.429,31.582 163.5,26C 177.349,20.742 190.682,14.4087 203.5,7C 212.462,6.18174 220.796,3.68174 228.5,-0.5 Z"/></g>
<g><path style="opacity:0.999" fill="#f3cd14" d="M 251.5,100.5 C 258.431,105.98 265.431,111.48 272.5,117C 277.42,119.196 282.42,121.196 287.5,123C 292.658,129.923 299.325,134.923 307.5,138C 321.309,146.798 333.642,157.465 344.5,170C 348.6,172.467 352.434,175.301 356,178.5C 361.871,189.701 369.871,199.034 380,206.5C 385.42,217.684 392.087,228.017 400,237.5C 401.488,241.787 402.822,246.12 404,250.5C 408.584,257.332 412.917,264.332 417,271.5C 420.063,286.023 424.73,300.023 431,313.5C 433.29,322.62 435.957,331.62 439,340.5C 439.066,346.837 439.066,353.17 439,359.5C 441.495,366.179 443.662,372.846 445.5,379.5C 445.5,381.167 445.5,382.833 445.5,384.5C 444.167,390.5 444.167,396.5 445.5,402.5C 445.5,408.833 445.5,415.167 445.5,421.5C 445.264,429.494 443.598,437.327 440.5,445C 441.736,449.111 442.736,453.277 443.5,457.5C 442.103,462.192 440.603,466.858 439,471.5C 436.539,492.33 433.205,512.997 429,533.5C 421.696,547.708 416.696,562.708 414,578.5C 408.463,591.111 404.13,604.111 401,617.5C 396.163,624.504 391.829,631.837 388,639.5C 385.822,647.878 383.489,656.211 381,664.5C 378.333,667.167 375.667,669.833 373,672.5C 366.169,687.16 361.669,702.493 359.5,718.5C 360.578,721.978 361.578,725.478 362.5,729C 359.45,735.263 357.116,741.763 355.5,748.5C 352.763,749.031 350.096,749.864 347.5,751C 341.984,751.173 336.651,751.673 331.5,752.5C 329.5,752.5 327.5,752.5 325.5,752.5C 317.579,743.921 308.246,737.255 297.5,732.5C 288.587,720.203 276.587,712.703 261.5,710C 258.443,707.277 255.11,704.944 251.5,703C 229.061,698.409 207.394,691.409 186.5,682C 180.003,678.586 173.67,674.919 167.5,671C 162.199,664.698 156.532,658.698 150.5,653C 134.272,642.981 120.772,630.148 110,614.5C 102.517,609.352 96.8499,602.685 93,594.5C 88.0549,591.555 83.7215,587.888 80,583.5C 76.3333,578.5 72.6667,573.5 69,568.5C 67.3895,563.669 65.3895,559.003 63,554.5C 55.6667,545.167 48.3333,535.833 41,526.5C 38.0306,518.558 34.0306,511.225 29,504.5C 25.7469,492.236 22.7469,479.903 20,467.5C 18.4725,464.583 17.1392,461.583 16,458.5C 14.5155,446.399 11.5155,434.732 7,423.5C 6.77898,410.344 5.27898,397.344 2.5,384.5C 2.95638,380.175 3.95638,376.009 5.5,372C 4.18452,364.233 2.18452,356.733 -0.5,349.5C -0.5,347.167 -0.5,344.833 -0.5,342.5C 1.19835,331.768 2.86501,320.935 4.5,310C 1.18,302.058 2.01334,294.558 7,287.5C 8.12773,282.861 9.12773,278.195 10,273.5C 12.3333,270.167 14.6667,266.833 17,263.5C 19.5383,254.886 21.8717,246.219 24,237.5C 26.7706,230.069 31.104,223.735 37,218.5C 44.043,204.372 49.7097,189.705 54,174.5C 59.3754,165.763 63.042,156.43 65,146.5C 66.944,142.89 69.2774,139.557 72,136.5C 75.3603,118.984 77.3603,101.317 78,83.5C 82.5292,77.7784 86.0292,71.4451 88.5,64.5C 95.572,59.9333 101.905,54.4333 107.5,48C 117.974,43.8954 128.641,40.062 139.5,36.5C 141.323,37.7472 143.323,38.4139 145.5,38.5C 146.641,40.2427 148.308,41.2427 150.5,41.5C 153.6,40.2424 156.6,38.7424 159.5,37C 180.228,32.371 201.228,29.871 222.5,29.5C 235.164,30.0616 247.831,30.5616 260.5,31C 264.797,32.1577 269.131,33.1577 273.5,34C 286.837,35.1681 300.17,36.3348 313.5,37.5C 313.5,38.5 313.5,39.5 313.5,40.5C 298.814,40.7662 284.148,40.4329 269.5,39.5C 231.8,40.6633 194.134,42.4966 156.5,45C 167.554,55.2108 178.221,65.8775 188.5,77C 195.728,80.781 203.395,83.1143 211.5,84C 224.035,91.4343 237.369,96.9343 251.5,100.5 Z"/></g>
<g><path style="opacity:1" fill="#495e56" d="M 135.5,49.5 C 140.817,49.8184 145.817,51.3184 150.5,54C 161.918,65.0825 172.918,76.4158 183.5,88C 192.564,92.3967 199.731,98.8967 205,107.5C 211.402,114.573 218.402,120.906 226,126.5C 228.092,129.681 230.425,132.681 233,135.5C 236.429,144.127 240.429,152.46 245,160.5C 248.704,178.892 251.87,197.392 254.5,216C 252.659,234.078 253.993,251.912 258.5,269.5C 257.188,277.056 252.855,279.556 245.5,277C 238.457,274.943 232.123,271.609 226.5,267C 216.883,265.472 208.549,261.472 201.5,255C 190.999,249.944 180.332,245.278 169.5,241C 161.507,237.675 154.174,233.341 147.5,228C 136.811,224.977 127.977,219.144 121,210.5C 113.837,200.844 107.17,190.844 101,180.5C 98.4241,168.372 96.2574,156.206 94.5,144C 96.4295,128.685 99.2628,113.518 103,98.5C 105.533,89.7616 109.867,82.0949 116,75.5C 117.944,71.2775 119.611,66.9442 121,62.5C 123.692,59.3081 126.192,55.9748 128.5,52.5C 131.016,51.6701 133.35,50.6701 135.5,49.5 Z"/></g>
<g><path style="opacity:1" fill="#f0cc19" d="M 138.5,81.5 C 142.801,85.9723 146.968,90.6389 151,95.5C 157.139,108.617 164.472,120.95 173,132.5C 181.193,151.89 191.193,170.224 203,187.5C 207.485,200.804 213.818,213.137 222,224.5C 223.626,227.058 224.626,229.725 225,232.5C 212.667,224.167 202.333,213.833 194,201.5C 173.985,169.523 156.985,135.856 143,100.5C 141.653,94.1113 140.153,87.778 138.5,81.5 Z"/></g>
</svg>
